The.Inbetweeners.2011.DVDRip.Xvid.AC3-SiNiSTER








Format : AVI
Format/Info : Audio Video Interleave
File size : 1.49 GiB
Duration : 1h 32mn
Overall bit rate : 2 294 Kbps
Writing library : VirtualDub build 32839/release

Video
ID : 0
Format : MPEG-4 Visual
Format profile : Advanced Simple@L5
Format settings, BVOP : Yes
Format settings, QPel : Yes
Format settings, GMC : 3 warppoints
Format settings, Matrix : Default (H.263)
Muxing mode : Packed bitstream
Codec ID : XVID
Codec ID/Hint : XviD
Duration : 1h 32mn
Bit rate : 1 836 Kbps
Width : 720 pixels
Height : 384 pixels
Display aspect ratio : 1.875
Frame rate : 25.000 fps
Color space : YUV
Chroma subsampling : 4:2:0
Bit depth : 8 bits
Scan type : Progressive
Bits/(Pixel*Frame) : 0.266
Stream size : 1.19 GiB (80%)
Writing library : XviD 64

Audio
ID : 1
Format : AC-3
Format/Info : Audio Coding 3
Mode extension : CM (complete main)
Codec ID : 2000
Duration : 1h 32mn
Bit rate mode : Constant
Bit rate : 448 Kbps
Channel(s) : 6 channels
Channel positions : Front: L C R, Side: L R, LFE
Sampling rate : 48.0 KHz
Bit depth : 16 bits
Video delay : 500ms
Stream size : 298 MiB (20%)
Alignment : Split accross interleaves
Interleave, duration : 40 ms (1.00 video frame)


Video Source: DVDR Legend-Rg.....thanks
Audio Source: DVDR Legend-Rg.....thanks


Greets:
DarkScene,HDScene,Noir,CrEwSaDe,blackjesus,ViSiON,HDLiTE,BTVRG,Twentyforty,UnKnOwN,
FLAWL3SS,Rx,Relizlab,MiSTERE,ILLUMiNATI,SAFCuk009,HiVE-CM8..... and everybody else we 
respect.. u know who u are

-------------------------------------------------------------------------------
Post Information
-------------------------------------------------------------------------------
Encoded by...........: SiNiSTER

Have sumthing to offer..looking for suppliers... cammers,cams,screeners, audio
supplier.. and any pre retail DVD/BR any RC...if u can provide any email us at
sinister@hushmail.me
-------------------------------------------------------------------------------
Release Notes
-------------------------------------------------------------------------------


source was nice.. made a script to crop, resize and denoise. then dropped it into
vdub and deinterlaced, adjusted brightness,levels and contrast then sharpened.. 
then just muxed the AC3 back to my encode....enjoy it is in sync.. 
